HIERARCHY
ROOT reference
{
  OFFSET 0 0 0
  CHANNELS 6 Xposition Yposition Zposition Zrotation Xrotation Yrotation
  JOINT Hips
  {
    OFFSET 28.0707 90.6407 80.0824
    CHANNELS 6 Xposition Yposition Zposition Zrotation Xrotation Yrotation
    JOINT Spine
    {
      OFFSET 0 7.86299 0
      CHANNELS 6 Xposition Yposition Zposition Zrotation Xrotation Yrotation
      JOINT Spine1
      {
        OFFSET 0 22.6654 0
        CHANNELS 6 Xposition Yposition Zposition Zrotation Xrotation Yrotation
        JOINT Neck
        {
          OFFSET 0 22.5723 2.05203
          CHANNELS 6 Xposition Yposition Zposition Zrotation Xrotation Yrotation
          JOINT Head
          {
            OFFSET 0 13.4246 -1.9178
            CHANNELS 6 Xposition Yposition Zposition Zrotation Xrotation Yrotation
            End Site
            {
              OFFSET 0 23.9725 0
            }
          }
        }
        JOINT LeftShoulder
        {
          OFFSET 3.7941 20.1358 -0.319195
          CHANNELS 6 Xposition Yposition Zposition Zrotation Xrotation Yrotation
          JOINT LeftArm
          {
            OFFSET 12.7665 0 0
            CHANNELS 6 Xposition Yposition Zposition Zrotation Xrotation Yrotation
            JOINT LeftForeArm
            {
              OFFSET 28.396 0 0
              CHANNELS 6 Xposition Yposition Zposition Zrotation Xrotation Yrotation
              JOINT LeftHand
              {
                OFFSET 28.7929 0 0
                CHANNELS 6 Xposition Yposition Zposition Zrotation Xrotation Yrotation
                End Site
                {
                  OFFSET 14.3835 0 0
                }
              }
            }
          }
        }
        JOINT RightShoulder
        {
          OFFSET -3.85764 20.1358 -0.319195
          CHANNELS 6 Xposition Yposition Zposition Zrotation Xrotation Yrotation
          JOINT RightArm
          {
            OFFSET -12.7665 0 0
            CHANNELS 6 Xposition Yposition Zposition Zrotation Xrotation Yrotation
            JOINT RightForeArm
            {
              OFFSET -28.396 0 0
              CHANNELS 6 Xposition Yposition Zposition Zrotation Xrotation Yrotation
              JOINT RightHand
              {
                OFFSET -28.7929 0 0
                CHANNELS 6 Xposition Yposition Zposition Zrotation Xrotation Yrotation
                End Site
                {
                  OFFSET -14.3835 0 0
                }
              }
            }
          }
        }
      }
    }
    JOINT LeftUpLeg
    {
      OFFSET 9.58901 0 0
      CHANNELS 6 Xposition Yposition Zposition Zrotation Xrotation Yrotation
      JOINT LeftLeg
      {
        OFFSET 0 -41.7092 0
        CHANNELS 6 Xposition Yposition Zposition Zrotation Xrotation Yrotation
        JOINT LeftFoot
        {
          OFFSET 0 -41.5308 0
          CHANNELS 6 Xposition Yposition Zposition Zrotation Xrotation Yrotation
          JOINT LeftToeBase
          {
            OFFSET 0 -6.23286 14.3835
            CHANNELS 6 Xposition Yposition Zposition Zrotation Xrotation Yrotation
            End Site
            {
              OFFSET 0 0 3.8356
            }
          }
        }
      }
    }
    JOINT RightUpLeg
    {
      OFFSET -9.58901 0 0
      CHANNELS 6 Xposition Yposition Zposition Zrotation Xrotation Yrotation
      JOINT RightLeg
      {
        OFFSET 0 -41.7092 0
        CHANNELS 6 Xposition Yposition Zposition Zrotation Xrotation Yrotation
        JOINT RightFoot
        {
          OFFSET 0 -41.5308 0
          CHANNELS 6 Xposition Yposition Zposition Zrotation Xrotation Yrotation
          JOINT RightToeBase
          {
            OFFSET 0 -6.23286 14.3835
            CHANNELS 6 Xposition Yposition Zposition Zrotation Xrotation Yrotation
            End Site
            {
              OFFSET 0 0 3.8356
            }
          }
        }
      }
    }
  }
}
MOTION
Frames:	10
Frame Time:	0.004
0 0 0 0 0 -0 -16.9737 85.0644 -138.697 -2.68668 -0.142506 1.06599 3.55271e-015 7.86299 0 2.94038 2.62214 4.40551 0 22.6654 2.84217e-014 1.38739 4.2596 4.42126 1.77636e-015 22.5723 2.05203 -1.41332 30.2286 -5.68508 0 13.4246 -1.9178 3.75327 9.62502 -5.89409 3.7941 20.1358 -0.319195 -19.5161 31.7555 14.7867 12.7665 2.84217e-014 2.84217e-014 -34.9493 16.8744 -19.0085 28.396 -7.10543e-015 0 -3.36294 -3.62601 -21.1388 28.7929 0 0 6.85422 -3.70545 9.13173 -3.85764 20.1358 -0.319195 8.77994 41.0834 8.43568 -12.7665 0 2.84217e-014 18.7222 25.3191 26.218 -28.396 1.42109e-014 1.42109e-014 -10.2939 -13.3471 32.4224 -28.7929 7.10543e-015 0 -2.69722 -10.1903 -9.4627 9.58901 -1.42109e-014 0 7.66502 -18.8317 -0.920945 -1.11022e-015 -41.7092 0 -3.07952 -0.068574 5.14995 0 -41.5308 0 -7.16687 3.26643 19.9419 0 -6.23286 14.3835 2.38542e-015 -1.59028e-015 -3.18055e-015 -9.58901 0 0 1.65393 4.29379 0.619665 -3.55271e-015 -41.7092 0 2.26505 6.00911 -4.62655 0 -41.5308 -2.84217e-014 1.87153 -19.2189 -5.50573 0 -6.23286 14.3835 9.93923e-016 -6.36111e-015 -3.18055e-015 
0 0 0 0 0 -0 -16.9671 84.9696 -138.354 -2.78395 -0.067775 1.00697 3.55271e-015 7.86299 0 2.99606 2.55713 4.46885 -3.55271e-015 22.6654 2.84217e-014 1.40339 4.31867 4.48286 3.55271e-015 22.5723 2.05203 -1.43962 30.1747 -5.69122 1.77636e-015 13.4246 -1.9178 3.75306 9.606 -5.90268 3.7941 20.1358 -0.319195 -19.515 31.6822 14.812 12.7665 0 0 -34.9733 16.7612 -18.7087 28.396 -7.10543e-015 0 -3.38926 -3.47222 -21.0811 28.7929 -7.10543e-015 0 6.93579 -3.55541 9.01507 -3.85764 20.1358 -0.319195 8.72283 41.0435 8.48397 -12.7665 1.42109e-014 0 18.7149 25.1718 26.0241 -28.396 0 0 -10.4915 -13.364 32.6602 -28.7929 0 1.42109e-014 -3.01146 -10.0999 -9.51737 9.58901 -1.42109e-014 0 7.76553 -18.8448 -1.4078 0 -41.7092 0 -2.97823 -0.788567 5.18945 8.88178e-016 -41.5308 -1.42109e-014 -7.26973 3.65999 20.1869 0 -6.23286 14.3835 4.77083e-015 3.18055e-015 -0 -9.58901 0 0 1.76644 4.32952 0.546661 -3.55271e-015 -41.7092 0 2.23108 6.24926 -4.41482 7.10543e-015 -41.5308 0 1.62144 -19.6213 -5.60978 0 -6.23286 14.3835 1.32417e-031 4.77083e-015 -1.59028e-015 
0 0 0 0 0 -0 -16.9501 84.8884 -137.96 -2.87402 -0.123549 1.00067 3.55271e-015 7.86299 -2.84217e-014 3.03972 2.56163 4.49824 0 22.6654 0 1.44701 4.43109 4.51028 -3.55271e-015 22.5723 2.05203 -1.44197 30.0853 -5.65921 1.77636e-015 13.4246 -1.9178 3.73363 9.64236 -5.87068 3.7941 20.1358 -0.319195 -19.5596 31.6628 14.8948 12.7665 0 -5.68434e-014 -34.979 16.6357 -18.4788 28.396 0 0 -3.41189 -3.38147 -21.037 28.7929 0 0 7.16138 -3.45285 8.96453 -3.85764 20.1358 -0.319195 8.61995 41.0001 8.59575 -12.7665 2.84217e-014 0 18.7525 25.0683 25.7661 -28.396 1.42109e-014 -1.42109e-014 -10.7754 -13.4754 32.8835 -28.7929 -7.10543e-015 0 -3.21054 -10.0927 -9.46086 9.58901 -1.42109e-014 2.84217e-014 7.71491 -18.7111 -1.63878 4.44089e-016 -41.7092 1.42109e-014 -2.70877 -1.43893 5.28495 -8.88178e-016 -41.5308 1.42109e-014 -7.52624 3.95789 20.1508 7.10543e-015 -6.23286 14.3835 -3.18055e-015 -3.18055e-015 -0 -9.58901 -2.84217e-014 0 1.8586 4.57774 0.542033 0 -41.7092 0 2.23156 6.39169 -4.40054 0 -41.5308 0 1.4687 -19.9491 -5.63448 0 -6.23286 14.3835 3.97569e-016 0 -1.59028e-015 
0 0 0 0 0 -0 -16.9397 84.7988 -137.609 -2.97139 -0.078077 0.929272 3.55271e-015 7.86299 0 3.0878 2.55477 4.56386 -1.77636e-015 22.6654 2.84217e-014 1.45102 4.44344 4.57646 1.77636e-015 22.5723 2.05203 -1.426 30.0041 -5.66356 -3.55271e-015 13.4246 -1.9178 3.73953 9.68681 -5.87297 3.7941 20.1358 -0.319195 -19.5235 31.6235 14.9383 12.7665 1.42109e-014 -2.84217e-014 -35.0273 16.5491 -18.2086 28.396 7.10543e-015 0 -3.43327 -3.2751 -20.9976 28.7929 -7.10543e-015 0 7.37329 -3.3385 8.87328 -3.85764 20.1358 -0.319195 8.61716 40.9453 8.6174 -12.7665 -1.42109e-014 0 18.7575 24.9304 25.5347 -28.396 1.42109e-014 1.42109e-014 -11.0498 -13.3998 33.0827 -28.7929 7.10543e-015 1.42109e-014 -2.95353 -9.94971 -8.92351 9.58901 0 0 7.73795 -18.7388 -1.79049 -4.44089e-016 -41.7092 0 -2.51005 -1.90707 5.34102 0 -41.5308 -1.42109e-014 -7.90991 4.0793 20.2282 0 -6.23286 14.3835 7.95139e-016 3.18055e-015 -3.18055e-015 -9.58901 0 0 1.94008 4.65238 0.554889 0 -41.7092 0 2.24603 6.61939 -4.29281 0 -41.5308 2.84217e-014 1.30838 -20.3189 -5.68693 0 -6.23286 14.3835 5.96354e-016 1.59028e-015 -1.59028e-015 
0 0 0 0 0 -0 -16.9209 84.7058 -137.242 -3.0642 -0.048844 0.880698 0 7.86299 0 3.14092 2.50975 4.61595 0 22.6654 0 1.46339 4.51832 4.62708 1.77636e-015 22.5723 2.05203 -1.41053 29.9515 -5.65169 -3.55271e-015 13.4246 -1.9178 3.73932 9.66062 -5.85687 3.7941 20.1358 -0.319195 -19.5136 31.5531 14.9787 12.7665 -1.42109e-014 2.84217e-014 -35.0595 16.4086 -17.9235 28.396 -7.10543e-015 -2.84217e-014 -3.45189 -3.10272 -20.9807 28.7929 0 0 7.5119 -3.16185 8.81888 -3.85764 20.1358 -0.319195 8.59722 40.9451 8.63576 -12.7665 1.42109e-014 -2.84217e-014 18.7228 24.7574 25.3332 -28.396 0 -1.42109e-014 -11.3212 -13.3655 33.308 -28.7929 0 1.42109e-014 -3.00071 -9.8104 -8.79711 9.58901 2.84217e-014 0 7.76006 -18.7349 -1.99085 -8.88178e-016 -41.7092 0 -2.36701 -2.31632 5.44655 -8.88178e-016 -41.5308 0 -8.16728 4.14408 20.261 0 -6.23286 14.3835 -7.95139e-016 6.36111e-015 3.18055e-015 -9.58901 0 2.84217e-014 1.91864 4.75566 0.874571 3.55271e-015 -41.7092 -2.84217e-014 2.49618 6.85689 -4.29051 0 -41.5308 0 0.968909 -20.7234 -6.01372 0 -6.23286 14.3835 -0 0 3.18055e-015 
0 0 0 0 0 -0 -16.8925 84.6202 -136.838 -3.14492 -0.028601 0.85779 -3.55271e-015 7.86299 0 3.18929 2.40968 4.64811 3.55271e-015 22.6654 -2.84217e-014 1.47619 4.66637 4.65509 -1.77636e-015 22.5723 2.05203 -1.41605 29.8197 -5.63393 1.77636e-015 13.4246 -1.9178 3.73437 9.77336 -5.84123 3.7941 20.1358 -0.319195 -19.4997 31.486 15.0328 12.7665 0 0 -35.025 16.5474 -17.6226 28.396 0 -2.84217e-014 -3.41238 -3.06136 -21.066 28.7929 0 0 7.69815 -3.10235 8.80461 -3.85764 20.1358 -0.319195 8.53904 40.8288 8.68014 -12.7665 0 0 18.7587 24.7152 25.0802 -28.396 -1.42109e-014 0 -11.5356 -13.3687 33.5985 -28.7929 7.10543e-015 0 -3.44977 -9.6791 -8.96669 9.58901 0 0 7.76886 -18.7056 -2.22496 -4.44089e-016 -41.7092 0 -2.29615 -2.68443 5.66174 0 -41.5308 0 -8.51215 4.02741 20.4027 7.10543e-015 -6.23286 14.3835 -1.59028e-015 0 -3.18055e-015 -9.58901 0 0 2.08346 4.94015 0.427681 3.55271e-015 -41.7092 2.84217e-014 2.23605 6.97206 -4.30499 0 -41.5308 0 1.1882 -21.0385 -5.46308 0 -6.23286 14.3835 -5.96354e-016 3.18055e-015 3.18055e-015 
0 0 0 0 0 -0 -16.8709 84.5362 -136.444 -3.21173 -0.029154 0.846942 0 7.86299 0 3.17947 2.37178 4.66554 1.77636e-015 22.6654 0 1.55104 4.75199 4.66705 -5.32907e-015 22.5723 2.05203 -1.47682 29.7413 -5.60331 3.55271e-015 13.4246 -1.9178 3.79515 9.80705 -5.8139 3.7941 20.1358 -0.319195 -19.5084 31.3873 15.0876 12.7665 -1.42109e-014 -2.84217e-014 -35.0733 16.5061 -17.2822 28.396 0 -2.84217e-014 -3.4088 -2.91698 -21.0927 28.7929 7.10543e-015 0 7.88691 -2.94994 8.71223 -3.85764 20.1358 -0.319195 8.48272 40.8275 8.7082 -12.7665 1.42109e-014 -2.84217e-014 18.7245 24.6365 24.8565 -28.396 -1.42109e-014 0 -11.7474 -13.4493 33.9365 -28.7929 0 0 -3.93233 -9.61699 -9.11929 9.58901 0 2.84217e-014 7.74534 -18.6619 -2.34604 4.44089e-016 -41.7092 1.42109e-014 -2.23604 -2.9779 5.92291 -8.88178e-016 -41.5308 0 -8.79178 3.95657 20.4551 0 -6.23286 14.3835 -2.38542e-015 -3.18055e-015 -0 -9.58901 0 2.84217e-014 2.12912 5.12149 0.351712 0 -41.7092 -2.84217e-014 2.24461 7.15111 -4.12986 -7.10543e-015 -41.5308 2.84217e-014 1.04639 -21.3768 -5.54555 0 -6.23286 14.3835 5.96354e-016 1.59028e-015 1.59028e-015 
0 0 0 0 0 -0 -16.8529 84.4613 -136.048 -3.26669 -0.0333482 0.837433 0 7.86299 0 3.16886 2.33368 4.68779 -3.55271e-015 22.6654 -2.84217e-014 1.58216 4.86003 4.68525 0 22.5723 2.05203 -1.46041 29.6189 -5.6067 0 13.4246 -1.9178 3.79429 9.86888 -5.81557 3.7941 20.1358 -0.319195 -19.4737 31.3233 15.1464 12.7665 1.42109e-014 0 -35.0952 16.4536 -16.9988 28.396 0 2.84217e-014 -3.43247 -2.77176 -21.1386 28.7929 7.10543e-015 0 8.14663 -2.7939 8.66731 -3.85764 20.1358 -0.319195 8.47029 40.7419 8.68917 -12.7665 1.42109e-014 0 18.6951 24.5707 24.7326 -28.396 0 0 -12.0361 -13.3231 34.0437 -28.7929 1.42109e-014 0 -4.03706 -9.38438 -9.0129 9.58901 0 0 7.74611 -18.6257 -2.47354 4.44089e-016 -41.7092 0 -2.23802 -3.14391 6.06574 8.88178e-016 -41.5308 0 -8.94382 3.78768 20.5876 0 -6.23286 14.3835 -7.95139e-016 3.18055e-015 -3.18055e-015 -9.58901 1.42109e-014 0 2.06251 5.30411 0.587639 -3.55271e-015 -41.7092 2.84217e-014 2.50212 7.34894 -4.07567 0 -41.5308 0 0.687928 -21.7152 -5.87972 -7.10543e-015 -6.23286 14.3835 5.96354e-016 -1.59028e-015 1.59028e-015 
0 0 0 0 0 -0 -16.8258 84.387 -135.655 -3.30772 -0.0383487 0.8366 0 7.86299 -2.84217e-014 3.13867 2.30704 4.70337 1.77636e-015 22.6654 0 1.6383 4.94561 4.69588 5.32907e-015 22.5723 2.05203 -1.4774 29.5045 -5.57232 -3.55271e-015 13.4246 -1.9178 3.83203 9.92759 -5.7801 3.7941 20.1358 -0.319195 -19.4263 31.2129 15.1722 12.7665 -2.84217e-014 0 -35.1359 16.5469 -16.6325 28.396 -7.10543e-015 0 -3.40974 -2.6827 -21.2535 28.7929 -7.10543e-015 2.84217e-014 8.44419 -2.68249 8.65395 -3.85764 20.1358 -0.319195 8.42364 40.6779 8.67703 -12.7665 0 2.84217e-014 18.7027 24.511 24.5303 -28.396 0 0 -12.1737 -13.3303 34.3471 -28.7929 0 0 -4.67555 -9.26341 -9.04874 9.58901 0 -2.84217e-014 7.70043 -18.6039 -2.53472 0 -41.7092 -1.42109e-014 -2.23476 -3.22113 6.3523 0 -41.5308 1.42109e-014 -9.17678 3.63979 20.4348 0 -6.23286 14.3835 7.95139e-016 -3.18055e-015 -3.18055e-015 -9.58901 0 0 2.15756 5.45383 0.235653 -3.55271e-015 -41.7092 -2.84217e-014 2.31445 7.57875 -4.08367 0 -41.5308 2.84217e-014 0.806836 -22.0443 -5.47224 0 -6.23286 14.3835 -3.97569e-016 -3.18055e-015 -0 
0 0 0 0 0 -0 -16.7986 84.3186 -135.264 -3.3191 -0.0427784 0.837419 0 7.86299 0 3.07236 2.28533 4.71783 1.77636e-015 22.6654 -2.84217e-014 1.68601 5.02332 4.70521 3.55271e-015 22.5723 2.05203 -1.46244 29.3617 -5.55639 -3.55271e-015 13.4246 -1.9178 3.84633 10.046 -5.76265 3.7941 20.1358 -0.319195 -19.3723 31.1443 15.2055 12.7665 0 0 -35.1679 16.5978 -16.3102 28.396 0 5.68434e-014 -3.39599 -2.57157 -21.3648 28.7929 7.10543e-015 -2.84217e-014 8.77146 -2.54729 8.65423 -3.85764 20.1358 -0.319195 8.41801 40.59 8.63092 -12.7665 0 0 18.6725 24.5237 24.3622 -28.396 0 -1.42109e-014 -12.4771 -13.2456 34.5231 -28.7929 7.10543e-015 0 -4.86321 -9.05127 -8.97635 9.58901 0 -2.84217e-014 7.66105 -18.5908 -2.60408 0 -41.7092 1.42109e-014 -2.34412 -3.2016 6.54759 0 -41.5308 -1.42109e-014 -9.08335 3.52149 20.4694 0 -6.23286 14.3835 1.59028e-015 -3.18055e-015 -0 -9.58901 -1.42109e-014 -2.84217e-014 2.15222 5.59233 -0.054185 0 -41.7092 2.84217e-014 2.2734 7.81356 -4.12645 0 -41.5308 0 0.954421 -22.344 -5.08136 0 -6.23286 14.3835 -1.98785e-016 3.18055e-015 1.59028e-015 
